<svg id="Layer_1" data-name="Layer 1" xmlns="http://www.w3.org/2000/svg" xmlns:xlink="http://www.w3.org/1999/xlink" viewBox="0 0 732.85 733.28"><defs><style>.cls-1{fill:#f7931e;}.cls-2{fill:#49453e;}.cls-3{fill:url(#radial-gradient);}.cls-4{fill:url(#linear-gradient);}.cls-5{fill:url(#radial-gradient-2);}.cls-6{fill:url(#linear-gradient-2);}.cls-7{fill:#fff;}.cls-8{fill:#4c4840;}</style><radialGradient id="radial-gradient" cx="596.88" cy="73.57" r="53.25" gradientTransform="translate(35.48 -87.83) rotate(8.99)" gradientUnits="userSpaceOnUse"><stop offset="0.46" stop-color="#fff"/><stop offset="0.68" stop-color="#f0ede9"/><stop offset="0.89" stop-color="#c9c1b1"/></radialGradient><linearGradient id="linear-gradient" x1="548.95" y1="108.69" x2="681.69" y2="23.93" gradientTransform="translate(35.48 -87.83) rotate(8.99)" gradientUnits="userSpaceOnUse"><stop offset="0.2" stop-color="#f7931e"/><stop offset="1" stop-color="#fcee21"/></linearGradient><radialGradient id="radial-gradient-2" cx="599.82" cy="69.03" r="36.18" gradientTransform="translate(35.48 -87.83) rotate(8.99)" gradientUnits="userSpaceOnUse"><stop offset="0" stop-color="#4d4d4d"/><stop offset="1"/></radialGradient><linearGradient id="linear-gradient-2" x1="57.58" y1="345.89" x2="578.24" y2="345.89" gradientUnits="userSpaceOnUse"><stop offset="0" stop-color="#f6f4f2"/><stop offset="0.32" stop-color="#c9c1b1"/></linearGradient></defs><path class="cls-1" d="M663.44,92.51l64.94,58.63a14.38,14.38,0,0,1,4.28,12.92h0c-1.29,8.17-8.69,13.56-15.95,11.62l-63.74-17Z"/><path class="cls-2" d="M555.5-.07h10A107.23,107.23,0,0,1,672.71,107.16v247.4a0,0,0,0,1,0,0H448.27a0,0,0,0,1,0,0V107.16A107.23,107.23,0,0,1,555.5-.07Z" transform="translate(34.6 -85.45) rotate(8.99)"/><circle class="cls-3" cx="596.48" cy="92.1" r="58.71"/><circle class="cls-4" cx="601.42" cy="87.59" r="49.25"/><circle class="cls-5" cx="607.84" cy="82.46" r="36.18"/><path class="cls-6" d="M20.58,276.85H512.33a0,0,0,0,1,0,0V386.28a28.66,28.66,0,0,1-28.66,28.66H85A93.34,93.34,0,0,1-8.33,321.6V305.75a28.9,28.9,0,0,1,28.9-28.9Z" transform="translate(75.03 -43.76) rotate(11.65)"/><rect class="cls-1" x="420.33" y="593.2" width="20.78" height="140.07"/><rect class="cls-1" x="490" y="593.2" width="20.78" height="140.07"/><path class="cls-7" d="M500.87,240H236.23c-26.71,0-48.36,22.83-48.36,51v39.35c0,160,123,289.66,274.73,289.66h38.27c99.52,0,180.21-85.07,180.21-190h0C681.08,325.08,600.39,240,500.87,240Z"/><path class="cls-8" d="M255.75,239h64.52a0,0,0,0,1,0,0V412.67A32.26,32.26,0,0,1,288,444.94h0a32.26,32.26,0,0,1-32.26-32.26V239a0,0,0,0,1,0,0Z"/><path class="cls-8" d="M350.07,239h64.52a0,0,0,0,1,0,0V412.67a32.26,32.26,0,0,1-32.26,32.26h0a32.26,32.26,0,0,1-32.26-32.26V239a0,0,0,0,1,0,0Z"/></svg>